<?xml version="1.0" encoding="UTF-8"?><svg id="icon-0" xmlns="http://www.w3.org/2000/svg" viewBox="0 0 232.29 229.86"><path d="M205.57,147.32l-.28-95.7h-.25L115.64,0,26.81,51.62h-.25l.43,95.59.68,6.59v.11l-.68-6.9L0,162.5l116.49,67.36,115.8-67.26-26.72-15.29ZM48.63,158.31l-14.89-8.6.05-17.12,14.89,8.6-.05,17.12ZM48.73,124.07l-14.89-8.6.05-17.11,14.89,8.6-.05,17.11ZM48.83,89.84l-14.89-8.6.05-17.11,14.89,8.6-.05,17.11ZM198.11,149.7l-14.89,8.59-.05-17.11,14.89-8.6.05,17.11ZM198.01,115.48l-14.89,8.6-.05-17.12,14.89-8.6.04,17.12ZM197.87,64.13l.05,17.11-14.89,8.6-.05-17.11,14.89-8.6ZM168.22,132.68l-14.89,8.59-.05-17.12,14.89-8.6.05,17.13ZM123.54,158.47l-.05-17.12,14.9-8.6.05,17.12-14.9,8.6ZM138.49,166.98l.05,17.11-14.9,8.61-.05-17.11,14.9-8.6ZM123.44,124.24l-.05-17.11,14.9-8.6.05,17.11-14.9,8.6ZM168.08,81.33l.05,17.11-14.89,8.6-.05-17.11,14.89-8.6ZM93.56,98.52l14.9,8.6-.05,17.11-14.9-8.6.05-17.11ZM93.46,132.76l14.9,8.6-.05,17.11-14.9-8.6.05-17.11ZM93.36,166.98l14.9,8.6-.05,17.13-14.9-8.61.05-17.12ZM63.78,81.33l14.89,8.6-.05,17.11-14.89-8.6.05-17.11ZM63.68,115.56l14.89,8.6-.05,17.11-14.89-8.59.05-17.11ZM78.44,158.6v-.11s-.03,16.94-.03,16.94l-14.87-8.62v-.02s.22-17.13.22-17.13l15.07,8.6v.13l-.21.22h-.18ZM153.45,184.06l-.07-25.67,14.89-8.6.07,25.67-14.89,8.6Z" style="stroke-width:0px;"/></svg>